<?xml version="1.0" encoding="utf-8"?>
<!-- Generator: Adobe Illustrator 19.2.1, SVG Export Plug-In . SVG Version: 6.00 Build 0)  -->
<svg version="1.1" id="Layer_1" xmlns="http://www.w3.org/2000/svg" xmlns:xlink="http://www.w3.org/1999/xlink" x="0px" y="0px"
	 viewBox="0 0 227 28.6" style="enable-background:new 0 0 227 28.6;" xml:space="preserve">
<style type="text/css">
	.st0{fill:none;stroke:#808285;stroke-width:0.25;stroke-miterlimit:10;}
	.st1{fill:#808285;}
	.st2{font-family:'HelveticaNeue-Italic';}
	.st3{font-size:18px;}
</style>
<title>201</title>
<rect y="0.2" class="st0" width="28.4" height="28.4"/>
<rect x="28.4" y="0.2" class="st0" width="28.4" height="28.4"/>
<rect x="56.7" y="0.2" class="st0" width="28.3" height="28.4"/>
<rect x="85.1" y="0.2" class="st0" width="28.3" height="28.4"/>
<rect x="113.4" y="0.2" class="st0" width="28.3" height="28.4"/>
<rect x="141.8" y="0.2" class="st0" width="28.4" height="28.4"/>
<rect x="170.1" y="0.2" class="st0" width="28.4" height="28.4"/>
<rect x="198.5" y="0.2" class="st0" width="28.4" height="28.4"/>
<text transform="matrix(1 0 0 1 9.95 20.86)" class="st1 st2 st3">7</text>
<text transform="matrix(1 0 0 1 38.29 20.86)" class="st1 st2 st3">9</text>
<text transform="matrix(1 0 0 1 60.28 20.86)" class="st1 st2 st3">11</text>
<text transform="matrix(1 0 0 1 88.63 20.86)" class="st1 st2 st3">13</text>
<text transform="matrix(1 0 0 1 116.97 20.86)" class="st1 st2 st3">18</text>
<text transform="matrix(1 0 0 1 145.32 20.86)" class="st1 st2 st3">24</text>
<text transform="matrix(1 0 0 1 174.94 20.86)" class="st1 st2 st3">31</text>
<text transform="matrix(1 0 0 1 203.28 20.86)" class="st1 st2 st3">37</text>
</svg>
