<?xml version="1.0" encoding="utf-8"?>
<!-- Generator: Adobe Illustrator 19.2.1, SVG Export Plug-In . SVG Version: 6.00 Build 0)  -->
<svg version="1.1" id="Layer_1" xmlns="http://www.w3.org/2000/svg" xmlns:xlink="http://www.w3.org/1999/xlink" x="0px" y="0px"
	 viewBox="0 0 398 328" style="enable-background:new 0 0 398 328;" xml:space="preserve">
<style type="text/css">
	.st0{fill:none;stroke:#808080;}
	.st1{fill:none;stroke:#808285;stroke-width:0.5;stroke-miterlimit:10;}
	.st2{fill:#808285;}
	.st3{font-family:'HelveticaNeue-Italic';}
	.st4{font-size:16px;}
</style>
<path class="st0" d="M75,189.5c0-8.6-7.2-15.5-16-15.5s-16,6.9-16,15.5S50.2,205,59,205S75,198.1,75,189.5L75,189.5z"/>
<path class="st0" d="M28.9,227v13.6h14.2V227H28.9z"/>
<path class="st0" d="M97,242.5c0-8.6-7.2-15.5-16-15.5s-16,6.9-16,15.5S72.2,258,81,258S97,251.1,97,242.5L97,242.5z"/>
<path class="st0" d="M58.9,280v13.6h14.2V280H58.9z"/>
<path class="st0" d="M88.9,280v13.6h14.2V280H88.9z"/>
<path class="st0" d="M165,189.5c0-8.6-7.2-15.5-16-15.5s-16,6.9-16,15.5s7.2,15.5,16,15.5S165,198.1,165,189.5L165,189.5z"/>
<path class="st0" d="M118.9,227v13.6h14.2V227H118.9z"/>
<path class="st0" d="M187,242.5c0-8.6-7.2-15.5-16-15.5s-16,6.9-16,15.5s7.2,15.5,16,15.5S187,251.1,187,242.5L187,242.5z"/>
<path class="st0" d="M148.9,280v13.6h14.2V280H148.9z"/>
<path class="st0" d="M178.9,280v13.6h14.2V280H178.9z"/>
<path class="st0" d="M264,189.5c0-8.6-7.2-15.5-16-15.5c-8.8,0-16,6.9-16,15.5s7.2,15.5,16,15.5C256.8,205,264,198.1,264,189.5
	L264,189.5z"/>
<path class="st0" d="M217.9,227v13.6h14.2V227H217.9z"/>
<path class="st0" d="M286,242.5c0-8.6-7.2-15.5-16-15.5s-16,6.9-16,15.5s7.2,15.5,16,15.5S286,251.1,286,242.5L286,242.5z"/>
<path class="st0" d="M247.9,280v13.6h14.2V280H247.9z"/>
<path class="st0" d="M277.9,280v13.6h14.2V280H277.9z"/>
<path class="st0" d="M354,189.5c0-8.6-7.2-15.5-16-15.5s-16,6.9-16,15.5s7.2,15.5,16,15.5S354,198.1,354,189.5L354,189.5z"/>
<path class="st0" d="M307.9,227v13.6h14.2V227H307.9z"/>
<path class="st0" d="M337.9,280v13.6h14.2V280H337.9z"/>
<path class="st0" d="M367.9,280v13.6h14.2V280H367.9z"/>
<path class="st0" d="M215,67.5c0-8.6-7.2-15.5-16-15.5s-16,6.9-16,15.5S190.2,83,199,83S215,76.1,215,67.5L215,67.5z"/>
<path class="st0" d="M120,132.5c0-8.6-7.2-15.5-16-15.5s-16,6.9-16,15.5s7.2,15.5,16,15.5S120,141.1,120,132.5L120,132.5z"/>
<path class="st0" d="M309,132.5c0-8.6-7.2-15.5-16-15.5s-16,6.9-16,15.5s7.2,15.5,16,15.5S309,141.1,309,132.5L309,132.5z"/>
<path class="st0" d="M375.5,242.5c0-8.6-7.2-15.5-16-15.5s-16,6.9-16,15.5s7.2,15.5,16,15.5S375.5,251.1,375.5,242.5L375.5,242.5z"
	/>
<line class="st1" x1="199" y1="83" x2="104" y2="117"/>
<line class="st1" x1="149" y1="174" x2="104" y2="148"/>
<line class="st1" x1="59" y1="174" x2="104" y2="148"/>
<line class="st1" x1="199" y1="83" x2="293" y2="117"/>
<line class="st1" x1="293" y1="148" x2="248" y2="174"/>
<line class="st1" x1="338" y1="174" x2="293" y2="148"/>
<line class="st1" x1="149" y1="205" x2="171" y2="227"/>
<line class="st1" x1="126.5" y1="227" x2="149" y2="205"/>
<line class="st1" x1="81" y1="227" x2="59" y2="205"/>
<line class="st1" x1="36.5" y1="227" x2="59" y2="205"/>
<line class="st1" x1="225.5" y1="227" x2="248" y2="205"/>
<line class="st1" x1="270" y1="227" x2="248" y2="205"/>
<line class="st1" x1="315.5" y1="227" x2="338" y2="205"/>
<line class="st1" x1="359.5" y1="227" x2="338" y2="205"/>
<line class="st1" x1="345.5" y1="280" x2="359.5" y2="258"/>
<line class="st1" x1="375.5" y1="280" x2="359.5" y2="258"/>
<line class="st1" x1="285.5" y1="280" x2="270" y2="258"/>
<line class="st1" x1="255.5" y1="280" x2="270" y2="258"/>
<line class="st1" x1="186.5" y1="280" x2="171" y2="258"/>
<line class="st1" x1="156.5" y1="280" x2="171" y2="258"/>
<line class="st1" x1="66.5" y1="280" x2="81" y2="258"/>
<line class="st1" x1="96.5" y1="280" x2="81" y2="258"/>
<text transform="matrix(1 0 0 1 349.753 248.912)" class="st2 st3 st4">10</text>
<text transform="matrix(1 0 0 1 195.6485 72.912)" class="st2 st3 st4">5</text>
<text transform="matrix(1 0 0 1 334.5645 195.3619)" class="st2 st3 st4">9</text>
<text transform="matrix(1 0 0 1 100.1046 138.912)" class="st2 st3 st4">2</text>
<text transform="matrix(1 0 0 1 288.6485 138.912)" class="st2 st3 st4">8</text>
<text transform="matrix(1 0 0 1 242.9245 195.6098)" class="st2 st3 st4">6</text>
<text transform="matrix(1 0 0 1 264.1485 248.9125)" class="st2 st3 st4">7</text>
<text transform="matrix(1 0 0 1 143.9205 195.7899)" class="st2 st3 st4">3</text>
<text transform="matrix(1 0 0 1 54.6485 195.7904)" class="st2 st3 st4">0</text>
<text transform="matrix(1 0 0 1 76.1485 248.912)" class="st2 st3 st4">1</text>
<text transform="matrix(1 0 0 1 167.0941 248.9125)" class="st2 st3 st4">4</text>
</svg>
