<?xml version="1.0" encoding="utf-8"?>
<!-- Generator: Adobe Illustrator 19.2.1, SVG Export Plug-In . SVG Version: 6.00 Build 0)  -->
<svg version="1.1" id="Layer_1" xmlns="http://www.w3.org/2000/svg" xmlns:xlink="http://www.w3.org/1999/xlink" x="0px" y="0px"
	 viewBox="0 0 312.1 59.7" style="enable-background:new 0 0 312.1 59.7;" xml:space="preserve">
<style type="text/css">
	.st0{fill:none;stroke:#808285;stroke-width:0.25;stroke-miterlimit:10;}
	.st1{fill:#808285;}
	.st2{font-family:'HelveticaNeue-Italic';}
	.st3{font-size:18px;}
	.st4{font-size:12px;}
	.st5{fill:none;stroke:#808285;stroke-width:0.5;stroke-miterlimit:10;}
	.st6{font-size:6.96px;}
</style>
<title>201</title>
<rect x="0.1" y="0.1" class="st0" width="28.4" height="28.4"/>
<rect x="28.5" y="0.1" class="st0" width="28.4" height="28.4"/>
<rect x="56.8" y="0.1" class="st0" width="28.3" height="28.4"/>
<rect x="85.2" y="0.1" class="st0" width="28.3" height="28.4"/>
<rect x="113.5" y="0.1" class="st0" width="28.3" height="28.4"/>
<rect x="141.9" y="0.1" class="st0" width="28.4" height="28.4"/>
<rect x="170.2" y="0.1" class="st0" width="28.4" height="28.4"/>
<rect x="198.6" y="0.1" class="st0" width="28.4" height="28.4"/>
<text transform="matrix(1 0 0 1 10.05 20.76)" class="st1 st2 st3">2</text>
<text transform="matrix(1 0 0 1 38.39 20.76)" class="st1 st2 st3">4</text>
<text transform="matrix(1 0 0 1 66.74 20.76)" class="st1 st2 st3">5</text>
<text transform="matrix(1 0 0 1 95.09 20.76)" class="st1 st2 st3">6</text>
<text transform="matrix(1 0 0 1 123.43 20.76)" class="st1 st2 st3">7</text>
<text transform="matrix(1 0 0 1 151.78 20.76)" class="st1 st2 st3">8</text>
<text transform="matrix(1 0 0 1 175.04 20.76)" class="st1 st2 st3">11</text>
<text transform="matrix(1 0 0 1 203.38 20.76)" class="st1 st2 st3">15</text>
<rect x="226.9" y="0.1" class="st0" width="28.4" height="28.4"/>
<rect x="255.2" y="0.1" class="st0" width="28.3" height="28.4"/>
<rect x="283.6" y="0.1" class="st0" width="28.4" height="28.4"/>
<text transform="matrix(1 0 0 1 230.46 20.76)" class="st1 st2 st3">17</text>
<text transform="matrix(1 0 0 1 260.08 20.76)" class="st1 st2 st3">19</text>
<text transform="matrix(1 0 0 1 288.42 20.76)" class="st1 st2 st3">20</text>
<line class="st0" x1="141.9" y1="0.1" x2="170.2" y2="28.5"/>
<line class="st0" x1="170.2" y1="0.1" x2="141.9" y2="28.5"/>
<line class="st0" x1="56.8" y1="0.1" x2="85.2" y2="28.5"/>
<line class="st0" x1="85.2" y1="0.1" x2="56.8" y2="28.5"/>
<text transform="matrix(1 0 0 1 10.18 41.59)" class="st1 st2 st4">0</text>
<text transform="matrix(1 0 0 1 38.39 41.59)" class="st1 st2 st4">1</text>
<text transform="matrix(1 0 0 1 66.74 41.59)" class="st1 st2 st4">2</text>
<text transform="matrix(1 0 0 1 94.95 41.59)" class="st1 st2 st4">3</text>
<text transform="matrix(1 0 0 1 123.43 41.59)" class="st1 st2 st4">4</text>
<text transform="matrix(1 0 0 1 151.65 41.59)" class="st1 st2 st4">5</text>
<text transform="matrix(1 0 0 1 179.99 41.59)" class="st1 st2 st4">6</text>
<text transform="matrix(1 0 0 1 208.21 41.59)" class="st1 st2 st4">7</text>
<text transform="matrix(1 0 0 1 236.82 41.59)" class="st1 st2 st4">8</text>
<text transform="matrix(1 0 0 1 265.03 41.59)" class="st1 st2 st4">9</text>
<text transform="matrix(1 0 0 1 289.26 41.59)" class="st1 st2 st4">10</text>
<circle class="st5" cx="99.3" cy="14.3" r="11.3"/>
<text transform="matrix(1 0 0 1 149.15 52.93)" class="st1 st2 st4">m</text>
<text transform="matrix(1 0 0 1 159.1504 56.93)" class="st1 st2 st6">1</text>
<text transform="matrix(1 0 0 1 64.11 52.93)" class="st1 st2 st4">m</text>
<text transform="matrix(1 0 0 1 74.1104 56.93)" class="st1 st2 st6">2</text>
<text transform="matrix(1 0 0 1 92.46 52.93)" class="st1 st2 st4">m</text>
<text transform="matrix(1 0 0 1 102.46 56.93)" class="st1 st2 st6">3</text>
</svg>
