<svg id="Layer_1" data-name="Layer 1" xmlns="http://www.w3.org/2000/svg" viewBox="0 0 581.35 495.97"><defs><style>.cls-1,.cls-3,.cls-4{fill:#808285;}.cls-1,.cls-2{stroke:#808285;stroke-miterlimit:10;stroke-width:0.25px;}.cls-2{fill:none;}.cls-3{font-size:18px;}.cls-3,.cls-4{font-family:HelveticaNeue;font-style:italic;}.cls-4{font-size:10px;}</style></defs><title>203</title><line class="cls-1" x1="294.22" y1="28.47" x2="336.74" y2="56.82"/><line class="cls-1" x1="294.22" y1="28.47" x2="251.7" y2="56.82"/><line class="cls-1" x1="294.22" y1="453.67" x2="336.74" y2="425.32"/><line class="cls-1" x1="294.22" y1="453.67" x2="251.7" y2="425.32"/><g id="_1" data-name="1"><rect class="cls-2" x="81.62" y="0.13" width="42.52" height="28.35"/><text class="cls-3" transform="translate(87.87 20.76)">310</text><text class="cls-4" transform="translate(100.1 40.1)">0</text><rect class="cls-2" x="124.14" y="0.13" width="42.52" height="28.35"/><text class="cls-3" transform="translate(130.39 20.76)">285</text><text class="cls-4" transform="translate(142.62 40.1)">1</text><rect class="cls-2" x="166.66" y="0.13" width="42.52" height="28.35"/><text class="cls-3" transform="translate(172.91 20.76)">179</text><text class="cls-4" transform="translate(185.14 40.1)">2</text><rect class="cls-2" x="209.18" y="0.13" width="42.52" height="28.35"/><text class="cls-3" transform="translate(215.43 20.76)">652</text><text class="cls-4" transform="translate(227.66 40.1)">3</text><rect class="cls-2" x="251.7" y="0.13" width="42.52" height="28.35"/><text class="cls-3" transform="translate(257.95 20.76)">351</text><text class="cls-4" transform="translate(270.18 40.1)">4</text><rect class="cls-2" x="294.22" y="0.13" width="42.52" height="28.35"/><text class="cls-3" transform="translate(300.47 20.76)">423</text><text class="cls-4" transform="translate(312.7 40.1)">5</text><rect class="cls-2" x="336.74" y="0.13" width="42.52" height="28.35"/><text class="cls-3" transform="translate(342.99 20.76)">861</text><text class="cls-4" transform="translate(355.22 40.1)">6</text><rect class="cls-2" x="379.26" y="0.13" width="42.52" height="28.35"/><text class="cls-3" transform="translate(385.51 20.76)">251</text><text class="cls-4" transform="translate(397.74 40.1)">7</text><rect class="cls-2" x="421.78" y="0.13" width="42.52" height="28.35"/><text class="cls-3" transform="translate(428.03 20.76)">450</text><text class="cls-4" transform="translate(440.26 40.1)">8</text><rect class="cls-2" x="464.3" y="0.13" width="42.52" height="28.35"/><text class="cls-3" transform="translate(470.55 20.76)">520</text><text class="cls-4" transform="translate(482.78 40.1)">9</text></g><g id="_11" data-name="11"><rect class="cls-2" x="39.1" y="56.82" width="42.52" height="28.35"/><text class="cls-3" transform="translate(45.35 77.45)">310</text><text class="cls-4" transform="translate(57.58 96.79)">0</text><rect class="cls-2" x="81.62" y="56.82" width="42.52" height="28.35"/><text class="cls-3" transform="translate(87.87 77.45)">285</text><text class="cls-4" transform="translate(100.1 96.79)">1</text><rect class="cls-2" x="124.14" y="56.82" width="42.52" height="28.35"/><text class="cls-3" transform="translate(130.39 77.45)">179</text><text class="cls-4" transform="translate(142.62 96.79)">2</text><rect class="cls-2" x="166.66" y="56.82" width="42.52" height="28.35"/><text class="cls-3" transform="translate(172.91 77.45)">652</text><text class="cls-4" transform="translate(185.14 96.79)">3</text><rect class="cls-2" x="209.18" y="56.82" width="42.52" height="28.35"/><text class="cls-3" transform="translate(215.43 77.45)">351</text><text class="cls-4" transform="translate(227.66 96.79)">4</text></g><g id="_12" data-name="12"><rect class="cls-2" x="336.74" y="56.82" width="42.52" height="28.35"/><text class="cls-3" transform="translate(342.99 77.45)">423</text><text class="cls-4" transform="translate(355.22 96.79)">5</text><rect class="cls-2" x="379.26" y="56.82" width="42.52" height="28.35"/><text class="cls-3" transform="translate(385.51 77.45)">861</text><text class="cls-4" transform="translate(397.74 96.79)">6</text><rect class="cls-2" x="421.78" y="56.82" width="42.52" height="28.35"/><text class="cls-3" transform="translate(428.03 77.45)">251</text><text class="cls-4" transform="translate(440.26 96.79)">7</text><rect class="cls-2" x="464.3" y="56.82" width="42.52" height="28.35"/><text class="cls-3" transform="translate(470.55 77.45)">450</text><text class="cls-4" transform="translate(482.78 96.79)">8</text><rect class="cls-2" x="506.82" y="56.82" width="42.52" height="28.35"/><text class="cls-3" transform="translate(513.07 77.45)">520</text><text class="cls-4" transform="translate(525.3 96.79)">9</text></g><g id="_111" data-name="111"><rect class="cls-2" x="17.84" y="113.51" width="42.52" height="28.35"/><text class="cls-3" transform="translate(24.09 134.14)">310</text><text class="cls-4" transform="translate(36.32 153.48)">0</text><rect class="cls-2" x="60.36" y="113.51" width="42.52" height="28.35"/><text class="cls-3" transform="translate(66.61 134.14)">285</text><text class="cls-4" transform="translate(78.84 153.48)">1</text><rect class="cls-2" x="102.88" y="113.51" width="42.52" height="28.35"/><text class="cls-3" transform="translate(109.13 134.14)">179</text><text class="cls-4" transform="translate(121.36 153.48)">2</text></g><g id="_112" data-name="112"><rect class="cls-2" x="187.92" y="113.51" width="42.52" height="28.35"/><text class="cls-3" transform="translate(194.17 134.14)">652</text><text class="cls-4" transform="translate(206.4 153.48)">3</text><rect class="cls-2" x="230.44" y="113.51" width="42.52" height="28.35"/><text class="cls-3" transform="translate(236.69 134.14)">351</text><text class="cls-4" transform="translate(248.92 153.48)">4</text></g><g id="_121" data-name="121"><rect class="cls-2" x="315.48" y="113.51" width="42.52" height="28.35"/><text class="cls-3" transform="translate(321.73 134.14)">423</text><text class="cls-4" transform="translate(333.96 153.48)">5</text><rect class="cls-2" x="358" y="113.51" width="42.52" height="28.35"/><text class="cls-3" transform="translate(364.25 134.14)">861</text><text class="cls-4" transform="translate(376.48 153.48)">6</text><rect class="cls-2" x="400.52" y="113.51" width="42.52" height="28.35"/><text class="cls-3" transform="translate(406.77 134.14)">251</text><text class="cls-4" transform="translate(419 153.48)">7</text></g><g id="_122" data-name="122"><rect class="cls-2" x="485.56" y="113.51" width="42.52" height="28.35"/><text class="cls-3" transform="translate(491.81 134.14)">450</text><text class="cls-4" transform="translate(504.04 153.48)">8</text><rect class="cls-2" x="528.08" y="113.51" width="42.52" height="28.35"/><text class="cls-3" transform="translate(534.33 134.14)">520</text><text class="cls-4" transform="translate(546.56 153.48)">9</text></g><g id="_1111" data-name="1111"><rect class="cls-2" x="7.21" y="170.2" width="42.52" height="28.35"/><text class="cls-3" transform="translate(13.46 190.84)">310</text><text class="cls-4" transform="translate(25.69 210.17)">0</text><rect class="cls-2" x="49.73" y="170.2" width="42.52" height="28.35"/><text class="cls-3" transform="translate(55.98 190.84)">285</text><text class="cls-4" transform="translate(68.21 210.17)">1</text></g><g id="_1112" data-name="1112"><rect class="cls-2" x="113.51" y="170.2" width="42.52" height="28.35"/><text class="cls-3" transform="translate(119.76 190.84)">179</text><text class="cls-4" transform="translate(131.99 210.17)">2</text></g><g id="_1121" data-name="1121"><rect class="cls-2" x="177.29" y="170.2" width="42.52" height="28.35"/><text class="cls-3" transform="translate(183.54 190.84)">652</text><text class="cls-4" transform="translate(195.77 210.17)">3</text></g><g id="_1122" data-name="1122"><rect class="cls-2" x="241.07" y="170.2" width="42.52" height="28.35"/><text class="cls-3" transform="translate(247.32 190.84)">351</text><text class="cls-4" transform="translate(259.55 210.17)">4</text></g><g id="_1211" data-name="1211"><rect class="cls-2" x="304.85" y="170.2" width="42.52" height="28.35"/><text class="cls-3" transform="translate(311.1 190.84)">423</text><text class="cls-4" transform="translate(323.33 210.17)">5</text><rect class="cls-2" x="347.37" y="170.2" width="42.52" height="28.35"/><text class="cls-3" transform="translate(353.62 190.84)">861</text><text class="cls-4" transform="translate(365.85 210.17)">6</text></g><g id="_1212" data-name="1212"><rect class="cls-2" x="411.15" y="170.2" width="42.52" height="28.35"/><text class="cls-3" transform="translate(417.4 190.84)">251</text><text class="cls-4" transform="translate(429.63 210.17)">7</text></g><g id="_1221" data-name="1221"><rect class="cls-2" x="474.93" y="170.2" width="42.52" height="28.35"/><text class="cls-3" transform="translate(481.18 190.84)">450</text><text class="cls-4" transform="translate(493.41 210.17)">8</text></g><g id="_1222" data-name="1222"><rect class="cls-2" x="538.71" y="170.2" width="42.52" height="28.35"/><text class="cls-3" transform="translate(544.96 190.84)">520</text><text class="cls-4" transform="translate(557.19 210.17)">9</text></g><g id="_11111" data-name="11111"><rect class="cls-2" x="0.13" y="226.9" width="42.52" height="28.35"/><text class="cls-3" transform="translate(6.37 247.53)">310</text><text class="cls-4" transform="translate(18.6 266.87)">0</text></g><g id="_11112" data-name="11112"><rect class="cls-2" x="56.82" y="226.9" width="42.52" height="28.35"/><text class="cls-3" transform="translate(63.07 247.53)">285</text><text class="cls-4" transform="translate(75.3 266.87)">1</text></g><g id="_12111" data-name="12111"><rect class="cls-2" x="297.76" y="226.9" width="42.52" height="28.35"/><text class="cls-3" transform="translate(304.01 247.53)">423</text><text class="cls-4" transform="translate(316.24 266.87)">5</text></g><g id="_12112" data-name="12112"><rect class="cls-2" x="354.46" y="226.9" width="42.52" height="28.35"/><text class="cls-3" transform="translate(360.7 247.53)">861</text><text class="cls-4" transform="translate(372.94 266.87)">6</text></g><line class="cls-1" x1="166.66" y1="85.16" x2="145.4" y2="113.51"/><line class="cls-1" x1="166.66" y1="85.16" x2="187.92" y2="113.51"/><line class="cls-1" x1="166.66" y1="396.98" x2="145.4" y2="368.63"/><line class="cls-1" x1="166.66" y1="396.98" x2="187.92" y2="368.63"/><line class="cls-1" x1="464.3" y1="85.16" x2="443.04" y2="113.51"/><line class="cls-1" x1="464.3" y1="85.16" x2="485.56" y2="113.51"/><line class="cls-1" x1="230.44" y1="141.86" x2="219.81" y2="170.2"/><line class="cls-1" x1="230.44" y1="141.86" x2="241.07" y2="170.2"/><line class="cls-1" x1="230.44" y1="283.59" x2="219.81" y2="255.24"/><line class="cls-1" x1="230.44" y1="283.59" x2="241.07" y2="255.24"/><line class="cls-1" x1="102.88" y1="141.86" x2="92.25" y2="170.2"/><line class="cls-1" x1="102.88" y1="141.86" x2="113.51" y2="170.2"/><line class="cls-1" x1="400.52" y1="141.86" x2="389.89" y2="170.2"/><line class="cls-1" x1="400.52" y1="141.86" x2="411.15" y2="170.2"/><line class="cls-1" x1="528.08" y1="141.86" x2="517.45" y2="170.2"/><line class="cls-1" x1="528.08" y1="141.86" x2="538.71" y2="170.2"/><polyline class="cls-2" points="56.82 226.9 49.73 198.55 42.65 226.9"/><line class="cls-1" x1="347.37" y1="198.55" x2="340.28" y2="226.9"/><line class="cls-1" x1="347.37" y1="198.55" x2="354.46" y2="226.9"/><g id="_1111-2" data-name="1111"><rect class="cls-2" x="7.21" y="283.59" width="42.52" height="28.35"/><text class="cls-3" transform="translate(13.46 304.22)">285</text><text class="cls-4" transform="translate(25.69 323.56)">0</text><rect class="cls-2" x="49.73" y="283.59" width="42.52" height="28.35"/><text class="cls-3" transform="translate(55.98 304.22)">310</text><text class="cls-4" transform="translate(68.21 323.56)">1</text></g><polyline class="cls-2" points="42.65 255.24 49.73 283.59 56.82 255.24"/><g id="_1211-2" data-name="1211"><rect class="cls-2" x="304.85" y="283.59" width="42.52" height="28.35"/><text class="cls-3" transform="translate(311.1 304.22)">423</text><text class="cls-4" transform="translate(323.33 323.56)">5</text><rect class="cls-2" x="347.37" y="283.59" width="42.52" height="28.35"/><text class="cls-3" transform="translate(353.62 304.22)">861</text><text class="cls-4" transform="translate(365.85 323.56)">6</text></g><polyline class="cls-2" points="340.28 255.24 347.37 283.59 354.46 255.24"/><g id="_112-2" data-name="112"><rect class="cls-2" x="187.92" y="283.59" width="42.52" height="28.35"/><text class="cls-3" transform="translate(194.17 304.22)">351</text><text class="cls-4" transform="translate(206.4 323.56)">3</text><rect class="cls-2" x="230.44" y="283.59" width="42.52" height="28.35"/><text class="cls-3" transform="translate(236.69 304.22)">652</text><text class="cls-4" transform="translate(248.92 323.56)">4</text></g><line class="cls-1" x1="219.81" y1="255.24" x2="219.81" y2="198.55"/><line class="cls-1" x1="241.07" y1="255.24" x2="241.07" y2="198.55"/><g id="_122-2" data-name="122"><rect class="cls-2" x="485.56" y="283.59" width="42.52" height="28.35"/><text class="cls-3" transform="translate(491.81 304.22)">450</text><text class="cls-4" transform="translate(504.04 323.56)">8</text><rect class="cls-2" x="528.08" y="283.59" width="42.52" height="28.35"/><text class="cls-3" transform="translate(534.33 304.22)">520</text><text class="cls-4" transform="translate(546.56 323.56)">9</text></g><line class="cls-1" x1="528.08" y1="283.59" x2="517.45" y2="255.24"/><line class="cls-1" x1="528.08" y1="283.59" x2="538.71" y2="255.24"/><line class="cls-1" x1="517.45" y1="255.24" x2="517.45" y2="198.55"/><line class="cls-1" x1="538.71" y1="255.24" x2="538.71" y2="198.55"/><g id="_111-2" data-name="111"><rect class="cls-2" x="17.84" y="340.28" width="42.52" height="28.35"/><text class="cls-3" transform="translate(24.09 360.92)">179</text><text class="cls-4" transform="translate(36.32 380.25)">0</text><rect class="cls-2" x="60.36" y="340.28" width="42.52" height="28.35"/><text class="cls-3" transform="translate(66.61 360.92)">285</text><text class="cls-4" transform="translate(78.84 380.25)">1</text><rect class="cls-2" x="102.88" y="340.28" width="42.52" height="28.35"/><text class="cls-3" transform="translate(109.13 360.92)">310</text><text class="cls-4" transform="translate(121.36 380.25)">2</text></g><line class="cls-1" x1="102.88" y1="340.28" x2="113.51" y2="311.94"/><line class="cls-1" x1="113.51" y1="311.94" x2="113.51" y2="198.55"/><line class="cls-1" x1="102.88" y1="339.59" x2="92.25" y2="311.24"/><g id="_121-2" data-name="121"><rect class="cls-2" x="315.48" y="340.28" width="42.52" height="28.35"/><text class="cls-3" transform="translate(321.73 360.92)">251</text><text class="cls-4" transform="translate(333.96 380.25)">5</text><rect class="cls-2" x="358" y="340.28" width="42.52" height="28.35"/><text class="cls-3" transform="translate(364.25 360.92)">423</text><text class="cls-4" transform="translate(376.48 380.25)">6</text><rect class="cls-2" x="400.52" y="340.28" width="42.52" height="28.35"/><text class="cls-3" transform="translate(406.77 360.92)">861</text><text class="cls-4" transform="translate(419 380.25)">7</text></g><line class="cls-1" x1="400.52" y1="340.28" x2="411.15" y2="311.94"/><line class="cls-1" x1="411.15" y1="311.94" x2="411.15" y2="198.55"/><line class="cls-1" x1="400.52" y1="339.59" x2="389.89" y2="311.24"/><g id="_11-2" data-name="11"><rect class="cls-2" x="39.1" y="396.98" width="42.52" height="28.35"/><text class="cls-3" transform="translate(45.35 417.61)">179</text><text class="cls-4" transform="translate(57.58 436.95)">0</text><rect class="cls-2" x="81.62" y="396.98" width="42.52" height="28.35"/><text class="cls-3" transform="translate(87.87 417.61)">285</text><text class="cls-4" transform="translate(100.1 436.95)">1</text><rect class="cls-2" x="124.14" y="396.98" width="42.52" height="28.35"/><text class="cls-3" transform="translate(130.39 417.61)">310</text><text class="cls-4" transform="translate(142.62 436.95)">2</text><rect class="cls-2" x="166.66" y="396.98" width="42.52" height="28.35"/><text class="cls-3" transform="translate(172.91 417.61)">351</text><text class="cls-4" transform="translate(185.14 436.95)">3</text><rect class="cls-2" x="209.18" y="396.98" width="42.52" height="28.35"/><text class="cls-3" transform="translate(215.43 417.61)">652</text><text class="cls-4" transform="translate(227.66 436.95)">4</text></g><line class="cls-1" x1="187.92" y1="368.63" x2="187.92" y2="311.94"/><g id="_12-2" data-name="12"><rect class="cls-2" x="336.74" y="396.98" width="42.52" height="28.35"/><text class="cls-3" transform="translate(342.99 417.61)">251</text><text class="cls-4" transform="translate(355.22 436.95)">5</text><rect class="cls-2" x="379.26" y="396.98" width="42.52" height="28.35"/><text class="cls-3" transform="translate(385.51 417.61)">423</text><text class="cls-4" transform="translate(397.74 436.95)">6</text><rect class="cls-2" x="421.78" y="396.98" width="42.52" height="28.35"/><text class="cls-3" transform="translate(428.03 417.61)">450</text><text class="cls-4" transform="translate(440.26 436.95)">7</text><rect class="cls-2" x="464.3" y="396.98" width="42.52" height="28.35"/><text class="cls-3" transform="translate(470.55 417.61)">520</text><text class="cls-4" transform="translate(482.78 436.95)">8</text><rect class="cls-2" x="506.82" y="396.98" width="42.52" height="28.35"/><text class="cls-3" transform="translate(513.07 417.61)">861</text><text class="cls-4" transform="translate(525.3 436.95)">9</text></g><line class="cls-1" x1="464.3" y1="396.93" x2="443.04" y2="368.59"/><line class="cls-1" x1="464.3" y1="396.93" x2="485.56" y2="368.59"/><line class="cls-1" x1="485.56" y1="368.59" x2="485.56" y2="311.89"/><g id="_1-2" data-name="1"><rect class="cls-2" x="81.62" y="453.67" width="42.52" height="28.35"/><text class="cls-3" transform="translate(87.87 474.3)">179</text><text class="cls-4" transform="translate(100.1 493.64)">0</text><rect class="cls-2" x="124.14" y="453.67" width="42.52" height="28.35"/><text class="cls-3" transform="translate(130.39 474.3)">251</text><text class="cls-4" transform="translate(142.62 493.64)">1</text><rect class="cls-2" x="166.66" y="453.67" width="42.52" height="28.35"/><text class="cls-3" transform="translate(172.91 474.3)">285</text><text class="cls-4" transform="translate(185.14 493.64)">2</text><rect class="cls-2" x="209.18" y="453.67" width="42.52" height="28.35"/><text class="cls-3" transform="translate(215.43 474.3)">310</text><text class="cls-4" transform="translate(227.66 493.64)">3</text><rect class="cls-2" x="251.7" y="453.67" width="42.52" height="28.35"/><text class="cls-3" transform="translate(257.95 474.3)">351</text><text class="cls-4" transform="translate(270.18 493.64)">4</text><rect class="cls-2" x="294.22" y="453.67" width="42.52" height="28.35"/><text class="cls-3" transform="translate(300.47 474.3)">423</text><text class="cls-4" transform="translate(312.7 493.64)">5</text><rect class="cls-2" x="336.74" y="453.67" width="42.52" height="28.35"/><text class="cls-3" transform="translate(342.99 474.3)">450</text><text class="cls-4" transform="translate(355.22 493.64)">6</text><rect class="cls-2" x="379.26" y="453.67" width="42.52" height="28.35"/><text class="cls-3" transform="translate(385.51 474.3)">520</text><text class="cls-4" transform="translate(397.74 493.64)">7</text><rect class="cls-2" x="421.78" y="453.67" width="42.52" height="28.35"/><text class="cls-3" transform="translate(428.03 474.3)">652</text><text class="cls-4" transform="translate(440.26 493.64)">8</text><rect class="cls-2" x="464.3" y="453.67" width="42.52" height="28.35"/><text class="cls-3" transform="translate(470.55 474.3)">861</text><text class="cls-4" transform="translate(482.78 493.64)">9</text></g></svg>