<svg id="Layer_1" data-name="Layer 1" xmlns="http://www.w3.org/2000/svg" viewBox="0 0 521.12 425.45"><defs><style>.cls-1,.cls-3,.cls-4{fill:#808285;}.cls-1,.cls-2{stroke:#808285;stroke-miterlimit:10;stroke-width:0.25px;}.cls-2{fill:none;}.cls-3{font-size:18px;}.cls-3,.cls-4{font-family:HelveticaNeue;font-style:italic;}.cls-4{font-size:10px;}</style></defs><title>min-max</title><line class="cls-1" x1="287.13" y1="28.47" x2="329.65" y2="56.82"/><line class="cls-1" x1="287.13" y1="28.47" x2="244.61" y2="56.82"/><line class="cls-1" x1="287.13" y1="396.98" x2="414.69" y2="311.94"/><line class="cls-1" x1="287.13" y1="396.98" x2="159.57" y2="368.63"/><g id="_1" data-name="1"><rect class="cls-2" x="74.53" y="0.13" width="42.52" height="28.35"/><text class="cls-3" transform="translate(86.78 20.76)">22</text><text class="cls-4" transform="translate(93.01 40.1)">0</text><rect class="cls-2" x="117.05" y="0.13" width="42.52" height="28.35"/><text class="cls-3" transform="translate(129.3 20.76)">13</text><text class="cls-4" transform="translate(135.53 40.1)">1</text><rect class="cls-2" x="159.57" y="0.13" width="42.52" height="28.35"/><text class="cls-3" transform="translate(171.82 20.76)">-5</text><text class="cls-4" transform="translate(178.05 40.1)">2</text><rect class="cls-2" x="202.09" y="0.13" width="42.52" height="28.35"/><text class="cls-3" transform="translate(214.34 20.76)">-8</text><text class="cls-4" transform="translate(220.57 40.1)">3</text><rect class="cls-2" x="244.61" y="0.13" width="42.52" height="28.35"/><text class="cls-3" transform="translate(256.86 20.76)">15</text><text class="cls-4" transform="translate(263.09 40.1)">4</text><rect class="cls-2" x="287.13" y="0.13" width="42.52" height="28.35"/><text class="cls-3" transform="translate(299.38 20.76)">60</text><text class="cls-4" transform="translate(305.61 40.1)">5</text><rect class="cls-2" x="329.65" y="0.13" width="42.52" height="28.35"/><text class="cls-3" transform="translate(341.9 20.76)">17</text><text class="cls-4" transform="translate(348.13 40.1)">6</text><rect class="cls-2" x="372.17" y="0.13" width="42.52" height="28.35"/><text class="cls-3" transform="translate(384.42 20.76)">31</text><text class="cls-4" transform="translate(390.65 40.1)">7</text><rect class="cls-2" x="414.69" y="0.13" width="42.52" height="28.35"/><text class="cls-3" transform="translate(426.94 20.76)">47</text><text class="cls-4" transform="translate(433.17 40.1)">8</text></g><g id="_11" data-name="11"><rect class="cls-2" x="32.01" y="56.82" width="42.52" height="28.35"/><text class="cls-3" transform="translate(44.26 77.45)">22</text><text class="cls-4" transform="translate(50.49 96.79)">0</text><rect class="cls-2" x="74.53" y="56.82" width="42.52" height="28.35"/><text class="cls-3" transform="translate(86.78 77.45)">13</text><text class="cls-4" transform="translate(93.01 96.79)">1</text><rect class="cls-2" x="117.05" y="56.82" width="42.52" height="28.35"/><text class="cls-3" transform="translate(129.3 77.45)">-5</text><text class="cls-4" transform="translate(135.53 96.79)">2</text><rect class="cls-2" x="159.57" y="56.82" width="42.52" height="28.35"/><text class="cls-3" transform="translate(171.82 77.45)">-8</text><text class="cls-4" transform="translate(178.05 96.79)">3</text><rect class="cls-2" x="202.09" y="56.82" width="42.52" height="28.35"/><text class="cls-3" transform="translate(214.34 77.45)">15</text><text class="cls-4" transform="translate(220.57 96.79)">4</text></g><g id="_12" data-name="12"><rect class="cls-2" x="329.65" y="56.82" width="42.52" height="28.35"/><text class="cls-3" transform="translate(339.9 77.45)">60</text><text class="cls-4" transform="translate(348.13 96.79)">5</text><rect class="cls-2" x="372.17" y="56.82" width="42.52" height="28.35"/><text class="cls-3" transform="translate(382.42 77.45)">17</text><text class="cls-4" transform="translate(390.65 96.79)">6</text><rect class="cls-2" x="414.69" y="56.82" width="42.52" height="28.35"/><text class="cls-3" transform="translate(424.94 77.45)">31</text><text class="cls-4" transform="translate(433.17 96.79)">7</text><rect class="cls-2" x="457.21" y="56.82" width="42.52" height="28.35"/><text class="cls-3" transform="translate(467.46 77.45)">47</text><text class="cls-4" transform="translate(475.69 96.79)">8</text></g><g id="_111" data-name="111"><rect class="cls-2" x="10.75" y="113.51" width="42.52" height="28.35"/><text class="cls-3" transform="translate(23 134.14)">22</text><text class="cls-4" transform="translate(29.23 153.48)">0</text><rect class="cls-2" x="53.27" y="113.51" width="42.52" height="28.35"/><text class="cls-3" transform="translate(65.52 134.14)">13</text><text class="cls-4" transform="translate(71.75 153.48)">1</text><rect class="cls-2" x="95.79" y="113.51" width="42.52" height="28.35"/><text class="cls-3" transform="translate(108.04 134.14)">-5</text><text class="cls-4" transform="translate(114.27 153.48)">2</text></g><g id="_112" data-name="112"><rect class="cls-2" x="180.83" y="113.51" width="42.52" height="28.35"/><text class="cls-3" transform="translate(191.08 134.14)">-8</text><text class="cls-4" transform="translate(199.31 153.48)">3</text><rect class="cls-2" x="223.35" y="113.51" width="42.52" height="28.35"/><text class="cls-3" transform="translate(233.6 134.14)">15</text><text class="cls-4" transform="translate(241.83 153.48)">4</text></g><g id="_121" data-name="121"><rect class="cls-2" x="308.39" y="113.51" width="42.52" height="28.35"/><text class="cls-3" transform="translate(318.64 134.14)">60</text><text class="cls-4" transform="translate(326.87 153.48)">5</text><rect class="cls-2" x="350.91" y="113.51" width="42.52" height="28.35"/><text class="cls-3" transform="translate(361.16 134.14)">17</text><text class="cls-4" transform="translate(369.39 153.48)">6</text></g><g id="_122" data-name="122"><rect class="cls-2" x="435.95" y="113.51" width="42.52" height="28.35"/><text class="cls-3" transform="translate(446.2 134.14)">31</text><text class="cls-4" transform="translate(454.43 153.48)">7</text><rect class="cls-2" x="478.47" y="113.51" width="42.52" height="28.35"/><text class="cls-3" transform="translate(488.72 134.14)">47</text><text class="cls-4" transform="translate(496.95 153.48)">8</text></g><g id="_1111" data-name="1111"><rect class="cls-2" x="0.13" y="170.2" width="42.52" height="28.35"/><text class="cls-3" transform="translate(10.24 190.84)">22</text><text class="cls-4" transform="translate(18.6 210.17)">0</text><rect class="cls-2" x="42.64" y="170.2" width="42.52" height="28.35"/><text class="cls-3" transform="translate(52.76 190.84)">13</text><text class="cls-4" transform="translate(61.12 210.17)">1</text></g><g id="_1112" data-name="1112"><rect class="cls-2" x="106.42" y="170.2" width="42.52" height="28.35"/><text class="cls-3" transform="translate(117.76 190.84)">-5</text><text class="cls-4" transform="translate(124.9 210.17)">2</text></g><line class="cls-1" x1="159.57" y1="85.16" x2="138.31" y2="113.51"/><line class="cls-1" x1="159.57" y1="85.16" x2="180.83" y2="113.51"/><line class="cls-1" x1="159.57" y1="340.28" x2="95.79" y2="311.94"/><line class="cls-1" x1="159.57" y1="340.28" x2="223.35" y2="255.24"/><line class="cls-1" x1="414.69" y1="85.16" x2="393.43" y2="113.51"/><line class="cls-1" x1="414.69" y1="85.16" x2="435.95" y2="113.51"/><line class="cls-1" x1="95.79" y1="141.86" x2="85.16" y2="170.2"/><line class="cls-1" x1="95.79" y1="141.86" x2="106.42" y2="170.2"/><g id="_1111-2" data-name="1111"><text class="cls-3" transform="translate(10.88 247.53)">13</text><path class="cls-2" d="M49.61,226.77H21.26A14.17,14.17,0,0,0,7.09,240.94h0a14.17,14.17,0,0,0,14.17,14.17H78a14.17,14.17,0,0,0,14.17-14.17h0A14.17,14.17,0,0,0,78,226.77H49.61Z" transform="translate(-6.96 0.13)"/><text class="cls-3" transform="translate(53.4 247.53)">22</text></g><g id="_112-2" data-name="112"><text class="cls-3" transform="translate(191.08 247.53)">-8</text><path class="cls-2" d="M230.31,226.77H202a14.17,14.17,0,0,0-14.17,14.17h0A14.17,14.17,0,0,0,202,255.12h56.69a14.17,14.17,0,0,0,14.17-14.17h0a14.17,14.17,0,0,0-14.17-14.17H230.31Z" transform="translate(-6.96 0.13)"/><text class="cls-3" transform="translate(233.6 247.53)">15</text></g><g id="_111-2" data-name="111"><text class="cls-3" transform="translate(62.52 304.22)">-5</text><path class="cls-2" d="M102.76,283.46H74.41a14.17,14.17,0,0,0-14.17,14.17h0a14.17,14.17,0,0,0,14.17,14.17H131.1a14.17,14.17,0,0,0,14.17-14.17h0a14.17,14.17,0,0,0-14.17-14.17H102.76Z" transform="translate(-6.96 0.13)"/><text class="cls-3" transform="translate(105.04 304.22)">22</text></g><line class="cls-1" x1="95.79" y1="283.59" x2="127.68" y2="198.55"/><line class="cls-1" x1="95.79" y1="282.9" x2="42.64" y2="255.24"/><g id="_11-2" data-name="11"><text class="cls-3" transform="translate(126.3 360.92)">-8</text><path class="cls-2" d="M166.54,340.16H138.19A14.17,14.17,0,0,0,124,354.33h0a14.17,14.17,0,0,0,14.17,14.17h56.69a14.17,14.17,0,0,0,14.17-14.17h0a14.17,14.17,0,0,0-14.17-14.17H166.54Z" transform="translate(-6.96 0.13)"/><text class="cls-3" transform="translate(168.82 360.92)">22</text></g><g id="_1-2" data-name="1"><text class="cls-3" transform="translate(253.86 417.61)">-8</text><path class="cls-2" d="M294.09,396.85H265.75A14.17,14.17,0,0,0,251.57,411h0a14.17,14.17,0,0,0,14.17,14.17h56.69A14.17,14.17,0,0,0,336.61,411h0a14.17,14.17,0,0,0-14.17-14.17H294.09Z" transform="translate(-6.96 0.13)"/><text class="cls-3" transform="translate(296.38 417.61)">60</text></g><g id="_112-3" data-name="112"><text class="cls-3" transform="translate(318.64 247.53)">17</text><path class="cls-2" d="M357.87,226.77H329.53a14.17,14.17,0,0,0-14.17,14.17h0a14.17,14.17,0,0,0,14.17,14.17h56.69a14.17,14.17,0,0,0,14.17-14.17h0a14.17,14.17,0,0,0-14.17-14.17H357.87Z" transform="translate(-6.96 0.13)"/><text class="cls-3" transform="translate(361.16 247.53)">60</text></g><g id="_112-4" data-name="112"><text class="cls-3" transform="translate(446.2 247.53)">31</text><path class="cls-2" d="M485.43,226.77H457.09a14.17,14.17,0,0,0-14.17,14.17h0a14.17,14.17,0,0,0,14.17,14.17h56.69A14.17,14.17,0,0,0,528,240.94h0a14.17,14.17,0,0,0-14.17-14.17H485.43Z" transform="translate(-6.96 0.13)"/><text class="cls-3" transform="translate(488.72 247.53)">47</text></g><g id="_112-5" data-name="112"><text class="cls-3" transform="translate(382.42 304.22)">17</text><path class="cls-2" d="M421.65,283.46H393.31a14.17,14.17,0,0,0-14.17,14.17h0a14.17,14.17,0,0,0,14.17,14.17H450a14.17,14.17,0,0,0,14.17-14.17h0A14.17,14.17,0,0,0,450,283.46H421.65Z" transform="translate(-6.96 0.13)"/><text class="cls-3" transform="translate(424.94 304.22)">60</text></g><line class="cls-1" x1="223.35" y1="226.9" x2="223.35" y2="141.86"/><line class="cls-1" x1="42.64" y1="226.9" x2="42.64" y2="198.55"/><line class="cls-1" x1="350.91" y1="226.9" x2="350.91" y2="141.86"/><line class="cls-1" x1="478.47" y1="226.9" x2="478.47" y2="141.86"/><line class="cls-1" x1="414.69" y1="283.59" x2="350.91" y2="255.24"/><line class="cls-1" x1="414.69" y1="283.59" x2="478.47" y2="255.24"/></svg>